<svg width="120" height="62" viewBox="0 0 120 62" fill="none" xmlns="http://www.w3.org/2000/svg">
<g clip-path="url(#clip0_188_20889)">
<path d="M56.9614 60.2233L54.7241 56.4774H54.2101V60.9382H54.3311V57.0493L56.6289 60.9096H56.78L58.836 56.7061V60.9382H59.4709V56.4774H58.836L56.9614 60.2233Z" fill="#BC8A61"/>
<path d="M65.8503 58.1931C65.7899 58.0787 65.7294 57.9929 65.6689 57.8785C65.5782 57.7927 65.5178 57.6783 65.3968 57.5926C65.2154 57.421 64.9735 57.278 64.7317 57.1922C64.4898 57.1064 64.2177 57.0493 63.9456 57.0493C63.6735 57.0493 63.4014 57.1064 63.1293 57.1922C62.8874 57.278 62.6757 57.421 62.4641 57.5926C62.3734 57.6783 62.2827 57.7927 62.192 57.8785C62.1013 57.9643 62.0408 58.0787 61.9803 58.1931C61.9199 58.3074 61.8896 58.4218 61.8594 58.5362C61.8594 58.6506 61.8292 58.7935 61.8292 58.9651V59.0795C61.8292 59.3654 61.8896 59.6228 61.9803 59.8516C62.1013 60.0803 62.2525 60.2805 62.4339 60.4521C62.6153 60.6236 62.8571 60.7666 63.099 60.8524C63.3409 60.9382 63.613 60.9954 63.9153 60.9954C64.2177 60.9954 64.4596 60.9382 64.7317 60.8524C64.9735 60.7666 65.2154 60.6236 65.3968 60.4521C65.5782 60.2805 65.7294 60.0803 65.8503 59.8516C65.9713 59.6228 66.0015 59.3654 66.0015 59.0795V58.9651C66.0015 58.8221 66.0015 58.6792 65.9713 58.5362C65.9713 58.4218 65.9108 58.2788 65.8503 58.1931ZM65.4573 59.0795C65.4573 59.1939 65.4573 59.3369 65.4271 59.4512C65.4271 59.5942 65.3666 59.7086 65.3364 59.8516C65.3061 59.9945 65.2457 60.1089 65.1852 60.2233C65.1247 60.3377 65.0642 60.4235 65.0038 60.4806C64.8828 60.595 64.7014 60.7094 64.52 60.7666C64.3386 60.8238 64.127 60.8524 63.9153 60.8524C63.4618 60.8524 63.099 60.738 62.8269 60.4806C62.7664 60.4235 62.706 60.3377 62.6455 60.2233C62.585 60.1089 62.5548 59.9945 62.4943 59.8516C62.4641 59.7086 62.4339 59.5942 62.4036 59.4512C62.4036 59.3083 62.3734 59.1939 62.3734 59.0795V58.9651C62.3734 58.8507 62.3734 58.7078 62.4036 58.5934C62.4036 58.4504 62.4641 58.336 62.4943 58.1931C62.5246 58.0501 62.585 57.9357 62.6455 57.8213C62.706 57.7069 62.7664 57.6212 62.8269 57.564C63.099 57.3066 63.4618 57.1922 63.9153 57.1922C64.3689 57.1922 64.7014 57.3066 64.9735 57.564C65.034 57.6212 65.0945 57.7355 65.1549 57.8213C65.2154 57.9357 65.2457 58.0501 65.3061 58.1931C65.3364 58.336 65.3666 58.4504 65.3968 58.5934C65.3968 58.7364 65.4271 58.8507 65.4271 58.9651V59.0795H65.4573Z" fill="#BC8A61"/>
<path d="M72.1088 61.3385C71.9274 61.3385 71.746 61.3385 71.5344 61.3099C71.3227 61.3099 71.1111 61.2527 70.8692 61.2241C70.6576 61.1955 70.4157 61.1669 70.2041 61.1383C69.9622 61.1383 69.7506 61.1097 69.5389 61.1097C69.3273 61.1097 69.4482 61.1097 69.3877 61.1097C69.3575 61.1097 69.297 61.1097 69.2366 61.1097L69.418 60.8238C69.5389 60.881 69.6901 60.9096 69.8413 60.9382C69.9924 60.9668 70.1436 60.9954 70.325 60.9954C70.5971 60.9954 70.8692 60.9382 71.1413 60.8524C71.3832 60.7666 71.6251 60.6236 71.8065 60.4521C71.9879 60.2805 72.1391 60.0803 72.26 59.8516C72.3809 59.6228 72.4112 59.3654 72.4112 59.0795V58.9651C72.4112 58.8221 72.4112 58.6792 72.3809 58.5362C72.3809 58.4218 72.3205 58.2788 72.26 58.1931C72.1995 58.1073 72.1391 57.9929 72.0786 57.8785C71.9879 57.7927 71.9274 57.6783 71.8065 57.5926C71.6251 57.421 71.4134 57.278 71.1413 57.1922C70.8995 57.1064 70.6274 57.0493 70.3552 57.0493C70.0831 57.0493 69.811 57.1064 69.5389 57.1922C69.297 57.278 69.0854 57.421 68.8738 57.5926C68.7831 57.6783 68.6924 57.7927 68.6017 57.8785C68.511 57.9643 68.4505 58.0787 68.39 58.1931C68.3295 58.3074 68.2993 58.4218 68.2691 58.5362C68.2691 58.6506 68.2388 58.7935 68.2388 58.9651V59.0795C68.2388 59.4512 68.3295 59.7658 68.5412 60.0803C68.7528 60.3663 68.9947 60.595 69.3575 60.7666L69.1156 61.2241C69.3575 61.2241 69.5994 61.2527 69.8413 61.3385C70.0831 61.3957 70.325 61.4815 70.5669 61.5673C70.8088 61.653 71.0204 61.7388 71.2018 61.796C71.3832 61.8532 71.5646 61.9104 71.6856 61.9104C71.8065 61.9104 71.9274 61.9104 72.0484 61.8246C72.1391 61.7674 72.2298 61.7102 72.3205 61.653C72.4112 61.5958 72.4716 61.5101 72.5019 61.4529C72.5624 61.3957 72.5926 61.3385 72.6228 61.3099C72.5623 61.3099 72.5019 61.3385 72.4112 61.3671C72.3205 61.3671 72.26 61.3671 72.1693 61.3671L72.1088 61.3385ZM69.2668 60.5092C69.2063 60.4521 69.1156 60.3663 69.0854 60.2519C69.0249 60.1375 68.9947 60.0231 68.9342 59.8802C68.904 59.7372 68.8738 59.6228 68.8435 59.4798C68.8435 59.3368 68.8133 59.2225 68.8133 59.1081V58.9937C68.8133 58.8793 68.8133 58.7364 68.8435 58.622C68.8435 58.479 68.904 58.3646 68.9342 58.2216C68.9645 58.0787 69.0249 57.9643 69.0854 57.8499C69.1459 57.7355 69.2063 57.6498 69.2668 57.5926C69.5389 57.3352 69.9017 57.2208 70.3552 57.2208C70.8088 57.2208 71.1413 57.3352 71.4134 57.5926C71.4739 57.6498 71.5646 57.7641 71.5949 57.8499C71.6553 57.9643 71.6856 58.0787 71.746 58.2216C71.7763 58.3646 71.8065 58.479 71.8367 58.622C71.8367 58.7649 71.867 58.8793 71.867 58.9937V59.1081C71.867 59.2225 71.867 59.3654 71.8367 59.4798C71.8367 59.6228 71.7763 59.7372 71.746 59.8802C71.7158 60.0231 71.6553 60.1375 71.5949 60.2519C71.5344 60.3663 71.4739 60.4521 71.4134 60.5092C71.2925 60.6236 71.1111 60.738 70.9297 60.7952C70.7483 60.8524 70.5367 60.881 70.325 60.881C69.8715 60.881 69.5087 60.7666 69.2366 60.5092H69.2668Z" fill="#BC8A61"/>
<path d="M74.2857 57.2208H75.6765V60.9381H76.2207V57.2208H77.6115V57.135H74.2857V57.2208Z" fill="#BC8A61"/>
<path d="M83.0537 60.1375L80.3628 57.135H79.7884V60.9381H79.8791V57.3638L83.0537 60.9381H83.1746V57.135H83.0537V60.1375Z" fill="#BC8A61"/>
<path d="M87.3167 57.135L85.5329 60.9381H85.6538L86.2283 59.7086H88.4656L89.0401 60.9381H89.6447L87.8609 57.135H87.3167ZM86.2887 59.5942L87.3469 57.3066L88.4051 59.5942H86.2887Z" fill="#BC8A61"/>
<path d="M95.3288 31.228L95.6916 31.7713C96.2963 30.599 97.2638 29.6553 98.4732 29.0548L98.7755 29.2264C99.6523 29.7125 100.408 30.3988 100.952 31.228L101.315 31.7713C101.92 30.599 102.887 29.6553 104.097 29.0548L104.248 28.969L104.097 28.8833C102.887 28.2828 101.89 27.3391 101.315 26.1667L100.952 26.7101C100.408 27.5393 99.6825 28.2256 98.7755 28.7117L98.4732 28.8833C97.2638 28.2828 96.2661 27.3391 95.6916 26.1667L95.3288 26.7101C94.7846 27.5393 94.059 28.2256 93.1519 28.7117L92.7287 28.9405L93.1519 29.1692C94.0287 29.6553 94.7846 30.3416 95.3288 31.1709V31.228Z" fill="#BC8A61"/>
<path d="M78.0045 31.228L78.3674 31.7713C78.972 30.599 79.9395 29.6553 81.1489 29.0548L81.4513 29.2264C82.328 29.7125 83.0839 30.3988 83.6281 31.228L83.9909 31.7713C84.5956 30.599 85.5631 29.6553 86.7725 29.0548L86.9237 28.969L86.7725 28.8833C85.5631 28.2828 84.5654 27.3391 83.9909 26.1667L83.6281 26.7101C83.0839 27.5393 82.3583 28.2256 81.4513 28.7117L81.1489 28.8833C79.9395 28.2828 78.9418 27.3391 78.3674 26.1667L78.0045 26.7101C77.4603 27.5393 76.7347 28.2256 75.8277 28.7117L75.4044 28.9405L75.8277 29.1692C76.7045 29.6553 77.4603 30.3416 78.0045 31.1709V31.228Z" fill="#BC8A61"/>
<path d="M118.005 35.2886C115.949 35.2314 114.225 35.9749 112.744 37.2902C111.081 38.7772 109.599 40.4357 108.178 42.0942C107.785 42.5517 107.392 43.0092 106.999 43.4667H105.336C105.881 42.8377 106.425 42.2086 106.969 41.5795C108.118 40.2641 109.297 38.9773 110.567 37.7478C111.383 36.9471 112.321 36.2608 113.409 35.8605C114.709 35.403 116.342 35.26 116.342 35.26H110.9C108.844 35.2028 107.12 35.9463 105.639 37.2616C103.976 38.7486 102.494 40.4071 101.073 42.0656C99.5012 43.8957 97.9895 45.7543 96.4475 47.5844C95.087 49.2143 93.7567 50.787 91.7914 51.7593C91.4589 51.9308 91.1263 52.0738 90.7635 52.1882C90.1588 52.4169 89.5239 52.5313 88.8285 52.5313C88.1331 52.5313 88.1028 52.5027 87.7703 52.4169C87.4982 52.3312 87.2261 52.2168 86.9842 52.0738C89.2215 51.1588 90.7635 49.6718 92.3054 47.8989C94.1195 45.7829 95.9033 43.6383 97.7476 41.5509C98.8965 40.2355 100.076 38.9487 101.345 37.7192C101.436 37.6334 101.527 37.5476 101.618 37.4904L103.734 35.26H101.678C99.6221 35.2028 97.8988 35.9463 96.4173 37.2616C94.7544 38.7486 93.2729 40.4071 91.8519 42.0656C91.4589 42.5231 91.0658 42.9806 90.6728 43.4381H89.2518C89.796 42.8091 90.31 42.18 90.8542 41.5509C92.0031 40.2355 93.1822 38.9487 94.4521 37.7192C95.2684 36.9185 96.2056 36.2322 97.2941 35.8319C98.5942 35.3744 100.227 35.2314 100.227 35.2314H94.7846C92.7287 35.1742 91.0053 35.9177 89.5239 37.2331C87.861 38.72 86.3795 40.3785 84.9585 42.037C84.505 42.5803 84.0515 43.095 83.5979 43.6383H90.4914C89.4029 44.9537 88.3145 46.2404 87.2261 47.5558C85.8655 49.1857 84.5352 50.7584 82.57 51.7307C82.2374 51.9022 81.9048 52.0452 81.542 52.1596C81.1187 52.3312 80.635 52.4455 80.1512 52.4741C78.1255 52.4741 76.2812 51.3303 75.4649 49.5575C76.0091 49.0427 76.5231 48.4709 77.0371 47.8704C78.8511 45.7543 80.635 43.6097 82.4793 41.5223C83.6282 40.2069 84.8073 38.9202 86.0772 37.6906C86.1679 37.6048 86.2888 37.4904 86.4097 37.4046L88.4657 35.2314H86.4097C84.3538 35.1742 82.6304 35.9177 81.149 37.2331C79.4861 38.72 78.0046 40.3785 76.5836 42.037C75.0114 43.8671 73.4997 45.7257 71.9577 47.5558C70.5972 49.1857 69.2669 50.7584 67.3016 51.7307C66.9691 51.9022 66.6365 52.0452 66.2737 52.1596C65.7899 52.3312 65.2457 52.4455 64.7015 52.5027C63.6735 52.5027 62.6758 52.1882 61.8595 51.6735C63.6433 50.7584 64.9434 49.4431 66.2737 47.8989C68.0877 45.7829 69.8716 43.6383 71.7158 41.5509H71.6554L71.7158 41.4937V41.5509L77.6115 35.26H75.6463C73.5904 35.2028 71.867 35.9463 70.3855 37.2616C68.7227 38.7486 67.2412 40.4071 65.8202 42.0656C64.248 43.8957 62.7363 45.7543 61.1943 47.5844C59.8338 49.2143 58.5035 50.787 56.5382 51.7593C56.2056 51.9308 55.8731 52.0738 55.5103 52.1882C55.2381 52.3026 54.9358 52.3598 54.6335 52.4455C53.6357 52.6171 52.6985 52.3026 52.4566 52.2168C50.703 51.3589 49.5843 49.5861 49.7355 47.6416C49.9169 45.4112 51.5798 43.7813 53.2124 42.2086C53.6962 41.751 54.1799 41.2649 54.6032 40.7788C55.5103 39.778 55.7219 38.3768 55.1474 37.1759C54.7242 36.318 53.9683 35.7175 53.0008 35.4888C52.638 35.403 51.9124 35.2314 51.217 35.2314C50.189 35.1742 48.9192 35.3458 47.4377 35.9463C47.0749 36.0893 46.7121 36.2608 46.3493 36.461C45.8655 36.7469 45.412 37.0901 44.9585 37.4618C43.2956 38.9487 41.8141 40.6073 40.3931 42.2658C40.0605 42.6661 39.7279 43.0378 39.3954 43.4381C37.2185 45.9259 34.5276 48.957 33.288 50.3867C32.1391 51.7021 29.6902 54.1898 28.4203 55.4194C27.604 56.2201 26.6667 56.9063 25.5783 57.3067C25.2759 57.4211 24.9736 57.5068 24.641 57.564C24.0363 57.564 23.4014 57.5926 22.7665 57.564C21.2548 57.5354 19.6524 57.4496 18.0802 57.0779C16.6289 56.7348 15.2079 56.2201 13.9381 55.5338C12.1542 54.5902 10.4611 53.3034 8.88894 51.7021C7.43769 50.2151 6.10738 48.4708 4.95848 46.555C3.87004 44.7249 2.96301 42.7805 2.23739 40.7216C1.542 38.7486 1.05825 36.8041 0.816378 34.9169C0.816378 34.8025 0.816378 34.6881 0.786144 34.6023C-0.241823 26.4528 2.14669 18.4176 7.5284 11.9838C12.6985 5.63569 20.4082 1.57521 28.9948 0.602985C37.6115 -0.369242 46.1074 1.88976 52.9101 6.97965C59.4407 11.8408 63.6735 18.7607 64.9131 26.51L64.762 26.7673C64.2177 27.5966 63.4921 28.2829 62.5851 28.769L62.1618 28.9977L62.5851 29.2265C63.4619 29.7126 64.2177 30.3989 64.762 31.2281L65.1248 31.7714C65.7295 30.599 66.697 29.6554 67.9063 29.0549L68.0575 28.9691L67.9063 28.8833C66.8179 28.34 65.9109 27.5108 65.3062 26.51C64.0666 18.6464 59.7733 11.612 53.152 6.6651C46.2586 1.57521 37.672 -0.712381 28.9645 0.259846C20.257 1.23207 12.4868 5.34974 7.04465 11.8694C1.63271 18.389 -0.78604 26.51 0.241926 34.7453C0.241926 34.8597 0.241926 34.9741 0.272161 35.0598C0.544269 36.9757 1.02802 38.9487 1.72341 40.9218C2.44903 42.9806 3.3863 44.9537 4.47473 46.8123C5.65387 48.7854 6.98418 50.5297 8.46566 52.0452C10.0681 53.6751 11.7914 54.9905 13.6055 55.9341C14.9358 56.6204 16.3568 57.1637 17.8383 57.5068C19.4407 57.8786 21.0734 57.9644 22.6153 57.993C22.827 57.993 23.0084 57.993 23.1898 57.993C23.7642 57.993 24.3084 57.993 24.8829 57.9644H27.9366C29.9925 58.0215 31.7159 57.2781 33.1973 55.9627C34.8602 54.4758 40.7861 48.1563 42.2374 46.4692C43.1444 45.4112 44.0514 44.3246 44.9585 43.2666C44.9585 43.2666 44.9585 43.2666 44.9282 43.2666C45.3515 42.7805 45.7446 42.3229 46.1679 41.8368C47.3168 40.5215 48.4959 39.2347 49.7657 38.0051C50.5821 37.2045 51.5193 36.5182 52.6078 36.1179C52.6078 36.1179 53.1217 35.9177 53.545 36.1179C54.0288 36.3752 54.4218 36.8041 54.6939 37.3188C55.2079 38.3768 55.0265 39.635 54.1799 40.5501C53.7567 41.0362 53.2729 41.4651 52.7892 41.9512C51.1263 43.5811 49.4029 45.2396 49.2215 47.613C49.0099 50.2437 51.0053 52.6457 53.7869 53.046C53.9985 53.0746 54.2404 53.1032 54.4521 53.1032C54.4521 53.1032 54.4823 53.1032 54.5428 53.1032C54.573 53.1032 54.6335 53.1032 54.6637 53.1032C54.7846 53.1032 54.9056 53.1032 55.0265 53.1032C55.4196 53.1032 55.8731 53.1032 55.994 53.1032C57.4755 53.1032 58.9267 52.8459 60.3175 52.3598C60.6803 52.2168 61.0431 52.0738 61.4059 51.9308C61.4059 51.9308 63.0084 53.2748 66.8481 53.1032C68.2994 53.1032 69.7506 52.8459 71.0809 52.3598C72.7136 51.7879 73.9834 50.93 75.1021 49.9006C75.1021 49.9006 75.4951 51.0444 76.9464 51.988C77.3092 52.2168 77.7022 52.4169 78.1255 52.5599C79.1535 52.9317 80.4838 53.189 82.2374 53.1032C83.6282 53.1032 85.0492 52.8173 86.3493 52.3598C86.5004 52.3026 86.6214 52.2454 86.7725 52.2168C86.7725 52.2168 87.861 52.9031 89.8564 53.0174C91.7914 53.2462 93.8171 53.0174 95.6312 52.3598C98.1709 51.4733 99.8338 49.9006 101.497 47.9561C102.706 46.555 103.915 45.1252 105.125 43.6955H109.358C111.172 43.6955 112.895 42.9234 114.044 41.6081C114.346 41.2363 114.649 40.8932 114.951 40.5501C115.646 39.778 116.342 39.0345 117.067 38.3197L119.94 35.2886H117.974H118.005Z" fill="#BC8A61"/>
</g>
<defs>
<clipPath id="clip0_188_20889">
<rect width="120" height="61.8508" fill="white" transform="translate(0 0.0310059)"/>
</clipPath>
</defs>
</svg>
